<?xml version="1.0" encoding="utf-8"?>
<!-- Generator: Adobe Illustrator 24.0.1, SVG Export Plug-In . SVG Version: 6.00 Build 0)  -->
<svg version="1.1" id="Camada_1" xmlns="http://www.w3.org/2000/svg" xmlns:xlink="http://www.w3.org/1999/xlink" x="0px" y="0px"
	 viewBox="0 0 16 16" style="enable-background:new 0 0 16 16;" xml:space="preserve">
<style type="text/css">
	.st0{fill:#006837;}
	.st1{fill:#00FF00;}
</style>
<g>
	<path class="st0" d="M2,4.1c-2.7,2.7-2.7,7.2,0,9.9c1.4,1.4,3.2,2,4.9,2s3.6-0.7,4.9-2C15.4,10.5,16,0,16,0S5.5,0.6,2,4.1z"/>
	<path class="st1" d="M10.5,12.5C9.6,13.5,8.3,14,7,14c-0.9,0-1.7-0.3-2.5-0.7C5.4,10.4,7.1,7.9,9.4,6C6.8,7.4,4.6,9.5,3,12
		c-1.5-2-1.4-4.8,0.4-6.5C5.2,3.7,10,2.7,13.8,2.2C13.3,6,12.3,10.8,10.5,12.5z"/>
</g>
</svg>
