<?xml version="1.0" encoding="utf-8"?>
<!-- Generator: Adobe Illustrator 24.0.1, SVG Export Plug-In . SVG Version: 6.00 Build 0)  -->
<svg version="1.1" id="Camada_1" xmlns="http://www.w3.org/2000/svg" xmlns:xlink="http://www.w3.org/1999/xlink" x="0px" y="0px"
	 viewBox="0 0 16.9 18.9" style="enable-background:new 0 0 16.9 18.9;" xml:space="preserve">
<style type="text/css">
	.st0{fill:url(#SVGID_1_);stroke:#006837;stroke-miterlimit:10;}
	.st1{fill:url(#SVGID_2_);stroke:#603813;stroke-miterlimit:10;}
	.st2{fill:#006837;}
	.st3{fill:#00FF00;}
</style>
<g>
	<g>
		<linearGradient id="SVGID_1_" gradientUnits="userSpaceOnUse" x1="6.8077" y1="8.5653" x2="14.0527" y2="14.3703">
			<stop  offset="0" style="stop-color:#FF7300"/>
			<stop  offset="0.1521" style="stop-color:#F97C01"/>
			<stop  offset="0.4043" style="stop-color:#EA9602"/>
			<stop  offset="0.4744" style="stop-color:#E59E03"/>
			<stop  offset="0.5999" style="stop-color:#E5B102"/>
			<stop  offset="0.746" style="stop-color:#E5C000"/>
			<stop  offset="0.8652" style="stop-color:#E5C500"/>
			<stop  offset="0.9944" style="stop-color:#BF6F00"/>
		</linearGradient>
		<path class="st0" d="M11.9,13.7c2.5-0.3,4.5-2.5,4.5-5.1c0-2.8-2.3-5.1-5.1-5.1S6.1,5.8,6.1,8.6c0,2.5,1.8,4.6,4.3,5v2.9H6V18
			h10.2v-1.5h-4.4C11.9,16.5,11.9,13.7,11.9,13.7z"/>
		<linearGradient id="SVGID_2_" gradientUnits="userSpaceOnUse" x1="5.9997" y1="16.1828" x2="16.2404" y2="16.1828">
			<stop  offset="0" style="stop-color:#FF7300"/>
			<stop  offset="0.1771" style="stop-color:#F97C01"/>
			<stop  offset="0.4705" style="stop-color:#EA9602"/>
			<stop  offset="0.5521" style="stop-color:#E59E03"/>
			<stop  offset="0.8652" style="stop-color:#E5C500"/>
			<stop  offset="0.9944" style="stop-color:#BF6F00"/>
		</linearGradient>
		<path class="st1" d="M10.4,14v2.9H6v1.5h10.2v-1.5h-4.4c0,0,0-2.8,0-2.8"/>
	</g>
	<g>
		<g>
			<path class="st2" d="M2.4,7.7C3.9,9.3,6.3,9.4,7.9,8c0.8-0.7,1.2-1.7,1.3-2.7c0.1-1-0.3-2-1-2.8C6.4,0.5,0,0,0,0S0.6,5.6,2.4,7.7
				z"/>
			<path class="st3" d="M7.4,3.3c0.5,0.6,0.7,1.3,0.7,2c0,0.5-0.2,0.9-0.5,1.4C6.1,6,4.7,5,3.8,3.7c0.7,1.5,1.8,2.8,3.1,3.7
				C5.7,8.2,4.2,8,3.3,6.9C2.4,5.9,1.1,3.1,0.9,1C3,1.4,6.5,2.2,7.4,3.3z"/>
		</g>
		<g>
			<path class="st2" d="M6.9,3.2C6.1,4.4,6.4,6.1,7.6,6.9c0.6,0.4,1.3,0.5,2,0.4c0.7-0.1,1.3-0.5,1.7-1.1c1.1-1.5,0.4-5.8,0.4-5.8
				S8,1.7,6.9,3.2z"/>
			<path class="st3" d="M10.6,5.8c-0.3,0.4-0.7,0.7-1.2,0.8c-0.3,0.1-0.7,0-1-0.1c0.2-1.1,0.6-2.2,1.3-3C8.9,4.2,8.2,5.1,7.8,6.1
				C7.1,5.5,7,4.4,7.6,3.7c0.5-0.8,2.2-2,3.5-2.4C11.1,2.6,11.1,5.1,10.6,5.8z"/>
		</g>
	</g>
</g>
</svg>
