<?xml version="1.0" encoding="utf-8"?>
<!-- Generator: Adobe Illustrator 24.0.1, SVG Export Plug-In . SVG Version: 6.00 Build 0)  -->
<svg version="1.1" id="Camada_1" xmlns="http://www.w3.org/2000/svg" xmlns:xlink="http://www.w3.org/1999/xlink" x="0px" y="0px"
	 viewBox="0 0 13.5 13.5" style="enable-background:new 0 0 13.5 13.5;" xml:space="preserve">
<path d="M12.8,9.4c-0.9,0-1.8-0.1-2.7-0.4c-0.3-0.1-0.6,0-0.8,0.2l-1.6,1.6C5.5,9.7,3.8,8,2.7,5.8l1.6-1.7C4.6,4,4.6,3.7,4.6,3.4
	C4.3,2.6,4.1,1.7,4.1,0.8C4.1,0.3,3.8,0,3.4,0H0.8C0.3,0,0,0.3,0,0.8c0,7,5.7,12.8,12.8,12.8c0.4,0,0.8-0.3,0.8-0.8v-2.6
	C13.5,9.7,13.2,9.4,12.8,9.4z"/>
</svg>
